<?xml version="1.0" encoding="UTF-8" standalone="no"?>
<!DOCTYPE svg PUBLIC "-//W3C//DTD SVG 1.1//EN" "http://www.w3.org/Graphics/SVG/1.1/DTD/svg11.dtd">
<svg width="100%" height="100%" viewBox="0 0 3300 2200" version="1.1" xmlns="http://www.w3.org/2000/svg" xmlns:xlink="http://www.w3.org/1999/xlink" xml:space="preserve" xmlns:serif="http://www.serif.com/" style="fill-rule:evenodd;clip-rule:evenodd;">
    <g id="Notes">
        <rect id="artboard" x="0" y="0" width="3300" height="2200" style="fill:white;"/>
        <path d="M263,292L3036,292" style="fill:none;fill-rule:nonzero;stroke:black;stroke-width:0.5px;"/>
        <g transform="matrix(1,0,0,1,263,322)">
            <text x="0px" y="0px" style="font-family:'SFProDisplay-Regular', 'SF Pro Display';font-size:16px;">W<tspan x="13.922px " y="0px ">e</tspan>ight/Scale V<tspan x="101.313px " y="0px ">a</tspan>riations</text>
        </g>
        <g transform="matrix(1,0,0,1,559.711,322)">
            <text x="-30.41px" y="0px" style="font-family:'SFProDisplay-Regular', 'SF Pro Display';font-size:16px;">Ultr<tspan x="-6.41px " y="0px ">a</tspan>light</text>
        </g>
        <g transform="matrix(1,0,0,1,856.422,322)">
            <text x="-14.824px" y="0px" style="font-family:'SFProDisplay-Regular', 'SF Pro Display';font-size:16px;">Thin</text>
        </g>
        <g transform="matrix(1,0,0,1,1153.13,322)">
            <text x="-16.957px" y="0px" style="font-family:'SFProDisplay-Regular', 'SF Pro Display';font-size:16px;">Light</text>
        </g>
        <g transform="matrix(1,0,0,1,1449.84,322)">
            <text x="-25.609px" y="0px" style="font-family:'SFProDisplay-Regular', 'SF Pro Display';font-size:16px;">Regular</text>
        </g>
        <g transform="matrix(1,0,0,1,1746.56,322)">
            <text x="-27.465px" y="0px" style="font-family:'SFProDisplay-Regular', 'SF Pro Display';font-size:16px;">Medium</text>
        </g>
        <g transform="matrix(1,0,0,1,2043.27,322)">
            <text x="-31.656px" y="0px" style="font-family:'SFProDisplay-Regular', 'SF Pro Display';font-size:16px;">Semibold</text>
        </g>
        <g transform="matrix(1,0,0,1,2339.98,322)">
            <text x="-15.145px" y="0px" style="font-family:'SFProDisplay-Regular', 'SF Pro Display';font-size:16px;">Bold</text>
        </g>
        <g transform="matrix(1,0,0,1,2636.69,322)">
            <text x="-21.461px" y="0px" style="font-family:'SFProDisplay-Regular', 'SF Pro Display';font-size:16px;">Heavy</text>
        </g>
        <g transform="matrix(1,0,0,1,2933.4,322)">
            <text x="-18.375px" y="0px" style="font-family:'SFProDisplay-Regular', 'SF Pro Display';font-size:16px;">Black</text>
        </g>
        <path d="M263,1903L3036,1903" style="fill:none;fill-rule:nonzero;stroke:black;stroke-width:0.5px;"/>
        <g transform="matrix(1,0,0,1,263,1933)">
            <path d="M9.248,0.83C13.555,0.83 17.139,-2.744 17.139,-7.051C17.139,-11.357 13.545,-14.932 9.238,-14.932C4.941,-14.932 1.367,-11.357 1.367,-7.051C1.367,-2.744 4.951,0.83 9.248,0.83ZM9.248,-0.654C5.703,-0.654 2.871,-3.496 2.871,-7.051C2.871,-10.605 5.693,-13.447 9.238,-13.447C12.793,-13.447 15.635,-10.605 15.645,-7.051C15.654,-3.496 12.803,-0.654 9.248,-0.654ZM6.396,-6.318L8.506,-6.318L8.506,-4.199C8.506,-3.76 8.799,-3.457 9.229,-3.457C9.678,-3.457 9.971,-3.76 9.971,-4.199L9.971,-6.318L12.1,-6.318C12.539,-6.318 12.842,-6.611 12.842,-7.041C12.842,-7.48 12.539,-7.783 12.1,-7.783L9.971,-7.783L9.971,-9.893C9.971,-10.342 9.678,-10.645 9.229,-10.645C8.799,-10.645 8.506,-10.342 8.506,-9.893L8.506,-7.783L6.396,-7.783C5.947,-7.783 5.645,-7.48 5.645,-7.041C5.645,-6.611 5.947,-6.318 6.396,-6.318Z" style="fill-rule:nonzero;"/>
        </g>
        <g transform="matrix(1,0,0,1,281.506,1933)">
            <path d="M11.709,2.91C17.158,2.91 21.67,-1.611 21.67,-7.051C21.67,-12.5 17.148,-17.012 11.699,-17.012C6.26,-17.012 1.748,-12.5 1.748,-7.051C1.748,-1.611 6.27,2.91 11.709,2.91ZM11.709,1.25C7.1,1.25 3.418,-2.441 3.418,-7.051C3.418,-11.66 7.09,-15.352 11.699,-15.352C16.309,-15.352 20,-11.66 20.01,-7.051C20.02,-2.441 16.318,1.25 11.709,1.25ZM7.988,-6.23L10.879,-6.23L10.879,-3.32C10.879,-2.832 11.211,-2.5 11.69,-2.5C12.178,-2.5 12.52,-2.832 12.52,-3.32L12.52,-6.23L15.43,-6.23C15.918,-6.23 16.25,-6.563 16.25,-7.041C16.25,-7.529 15.918,-7.871 15.43,-7.871L12.52,-7.871L12.52,-10.762C12.52,-11.27 12.178,-11.602 11.69,-11.602C11.211,-11.602 10.879,-11.26 10.879,-10.762L10.879,-7.871L7.988,-7.871C7.48,-7.871 7.148,-7.529 7.148,-7.041C7.148,-6.563 7.49,-6.23 7.988,-6.23Z" style="fill-rule:nonzero;"/>
        </g>
        <g transform="matrix(1,0,0,1,304.924,1933)">
            <path d="M14.971,5.664C21.934,5.664 27.695,-0.098 27.695,-7.051C27.695,-14.014 21.924,-19.775 14.961,-19.775C8.008,-19.775 2.256,-14.014 2.256,-7.051C2.256,-0.098 8.018,5.664 14.971,5.664ZM14.971,3.848C8.936,3.848 4.082,-1.016 4.082,-7.051C4.082,-13.096 8.926,-17.949 14.961,-17.949C21.006,-17.949 25.859,-13.096 25.869,-7.051C25.879,-1.016 21.016,3.848 14.971,3.848ZM10.059,-6.143L14.063,-6.143L14.063,-2.129C14.063,-1.592 14.434,-1.221 14.951,-1.221C15.488,-1.221 15.859,-1.592 15.859,-2.129L15.859,-6.143L19.883,-6.143C20.41,-6.143 20.791,-6.514 20.791,-7.031C20.791,-7.568 20.42,-7.949 19.883,-7.949L15.859,-7.949L15.859,-11.953C15.859,-12.51 15.488,-12.881 14.951,-12.881C14.434,-12.881 14.063,-12.5 14.063,-11.953L14.063,-7.949L10.059,-7.949C9.502,-7.949 9.131,-7.568 9.131,-7.031C9.131,-6.514 9.512,-6.143 10.059,-6.143Z" style="fill-rule:nonzero;"/>
        </g>
        <g transform="matrix(1,0,0,1,263,1953)">
            <text x="0px" y="0px" style="font-family:'SFProDisplay-Regular', 'SF Pro Display';font-size:16px;">Design V<tspan x="59.211px " y="0px ">a</tspan>riations</text>
        </g>
        <g transform="matrix(1,0,0,1,263,1971)">
            <text x="0px" y="0px" style="font-family:'SFProDisplay-Regular', 'SF Pro Display';font-size:16px;">Symbols ar<tspan x="74.039px " y="0px ">e</tspan> support<tspan x="136.977px " y="0px ">e</tspan>d in up t<tspan x="197.406px " y="0px ">o</tspan> nine weights and thr<tspan x="343.289px " y="0px ">e</tspan>e scales.</text>
        </g>
        <g transform="matrix(1,0,0,1,263,1989)">
            <text x="0px" y="0px" style="font-family:'SFProDisplay-Regular', 'SF Pro Display';font-size:16px;">F<tspan x="8.133px " y="0px ">o</tspan>r optimal lay<tspan x="96.43px " y="0px ">o</tspan>ut with t<tspan x="157.508px 165.547px " y="0px 0px ">ex</tspan>t and other symbols,<tspan x="306.883px 310.164px 317.578px " y="0px 0px 0px "> ve</tspan>rtically align</text>
        </g>
        <g transform="matrix(1,0,0,1,263,2007)">
            <text x="0px" y="0px" style="font-family:'SFProDisplay-Regular', 'SF Pro Display';font-size:16px;">symbols with the adjacent t<tspan x="181.344px 189.383px " y="0px 0px ">ex</tspan>t.</text>
        </g>
        <path d="M776,1919L776,1933" style="fill:none;fill-rule:nonzero;stroke:rgb(0,174,239);stroke-width:0.5px;"/>
        <g transform="matrix(1,0,0,1,776,1933)">
            <path d="M3.311,0.127C3.828,0.127 4.082,-0.068 4.268,-0.605L5.527,-4.063L11.289,-4.063L12.549,-0.605C12.734,-0.068 12.988,0.127 13.496,0.127C14.014,0.127 14.346,-0.186 14.346,-0.674C14.346,-0.84 14.316,-0.986 14.238,-1.201L9.658,-13.389C9.434,-13.994 9.033,-14.287 8.408,-14.287C7.803,-14.287 7.393,-13.994 7.178,-13.398L2.598,-1.191C2.52,-0.977 2.49,-0.83 2.49,-0.664C2.49,-0.176 2.803,0.127 3.311,0.127ZM6.006,-5.537L8.379,-12.109L8.428,-12.109L10.801,-5.537L6.006,-5.537Z" style="fill-rule:nonzero;"/>
        </g>
        <path d="M792.836,1919L792.836,1933" style="fill:none;fill-rule:nonzero;stroke:rgb(0,174,239);stroke-width:0.5px;"/>
        <g transform="matrix(1,0,0,1,776,1953)">
            <text x="0px" y="0px" style="font-family:'SFProDisplay-Regular', 'SF Pro Display';font-size:16px;">M<tspan x="13.063px 21.094px 25.633px " y="0px 0px 0px ">arg</tspan>ins</text>
        </g>
        <g transform="matrix(1,0,0,1,776,1971)">
            <text x="0px" y="0px" style="font-family:'SFProDisplay-Regular', 'SF Pro Display';font-size:16px;">L<tspan x="8.156px " y="0px ">e</tspan>ading and tr<tspan x="95.227px " y="0px ">a</tspan>iling mar<tspan x="159.031px " y="0px ">g</tspan>ins on the left and right side of each symbol</text>
        </g>
        <g transform="matrix(1,0,0,1,776,1989)">
            <text x="0px" y="0px" style="font-family:'SFProDisplay-Regular', 'SF Pro Display';font-size:16px;">can be adjust<tspan x="88.727px " y="0px ">e</tspan>d b<tspan x="117.609px " y="0px ">y</tspan> modifying the x<tspan x="230.703px " y="0px ">-</tspan>location of the mar<tspan x="360.664px " y="0px ">g</tspan>in guidelines.</text>
        </g>
        <g transform="matrix(1,0,0,1,776,2007)">
            <text x="0px" y="0px" style="font-family:'SFProDisplay-Regular', 'SF Pro Display';font-size:16px;">Modifications ar<tspan x="106.484px " y="0px ">e</tspan> aut<tspan x="139.008px " y="0px ">o</tspan>matically applied pr<tspan x="275.977px " y="0px ">o</tspan>portionally t<tspan x="361.93px " y="0px ">o</tspan> all</text>
        </g>
        <g transform="matrix(1,0,0,1,776,2025)">
            <text x="0px" y="0px" style="font-family:'SFProDisplay-Regular', 'SF Pro Display';font-size:16px;">scales and weights.</text>
        </g>
        <g transform="matrix(1,0,0,1,1289,1933)">
            <path d="M2.842,1.865L4.541,3.574C5.4,4.443 6.387,4.385 7.314,3.359L17.49,-7.852C17.754,-7.764 18.027,-7.783 18.34,-7.842L19.404,-8.037L20.068,-7.363L20.029,-6.807C19.99,-6.309 20.117,-5.928 20.606,-5.449L21.367,-4.707C21.846,-4.229 22.461,-4.199 22.93,-4.668L25.84,-7.588C26.309,-8.057 26.289,-8.652 25.811,-9.131L25.039,-9.893C24.561,-10.371 24.19,-10.527 23.711,-10.488L23.135,-10.44L22.49,-11.074L22.734,-12.197C22.861,-12.764 22.705,-13.203 22.119,-13.789L19.922,-15.977C16.582,-19.297 12.148,-19.219 9.258,-16.328C8.838,-15.918 8.809,-15.342 9.043,-14.951C9.277,-14.59 9.736,-14.355 10.381,-14.522C11.846,-14.863 13.369,-14.922 14.795,-13.984L14.209,-12.529C14.014,-12.051 13.984,-11.65 14.111,-11.289L3.047,-0.898C2.061,0.02 1.982,0.996 2.842,1.865ZM10.752,-15.957C13.184,-17.734 16.475,-17.432 18.701,-15.205L21.133,-12.793C21.367,-12.559 21.406,-12.373 21.338,-12.031L21.016,-10.547L22.52,-9.063L23.506,-9.121C23.76,-9.131 23.838,-9.111 24.033,-8.916L24.609,-8.34L22.168,-5.898L21.592,-6.475C21.397,-6.67 21.367,-6.748 21.377,-7.012L21.445,-7.988L19.951,-9.473L18.428,-9.219C18.106,-9.15 17.959,-9.18 17.715,-9.414L15.713,-11.416C15.459,-11.65 15.43,-11.816 15.586,-12.188L16.465,-14.277C14.902,-15.732 12.871,-16.357 10.84,-15.762C10.684,-15.723 10.625,-15.85 10.752,-15.957ZM5.273,2.305L4.102,1.143C3.633,0.684 3.74,0.342 4.141,-0.02L14.951,-10.195L16.416,-8.711L6.426,2.275C6.074,2.676 5.742,2.773 5.273,2.305Z" style="fill-rule:nonzero;"/>
        </g>
        <g transform="matrix(1,0,0,1,1289,1953)">
            <text x="0px" y="0px" style="font-family:'SFProDisplay-Regular', 'SF Pro Display';font-size:16px;">Exporting</text>
        </g>
        <g transform="matrix(1,0,0,1,1289,1971)">
            <text x="0px" y="0px" style="font-family:'SFProDisplay-Regular', 'SF Pro Display';font-size:16px;">Symbols should be outlined when e<tspan x="235.289px " y="0px ">x</tspan>porting t<tspan x="298.188px " y="0px ">o</tspan> ensur<tspan x="347px " y="0px ">e</tspan> the</text>
        </g>
        <g transform="matrix(1,0,0,1,1289,1989)">
            <text x="0px" y="0px" style="font-family:'SFProDisplay-Regular', 'SF Pro Display';font-size:16px;">design is pr<tspan x="75.641px " y="0px ">e</tspan>serv<tspan x="111.82px " y="0px ">e</tspan>d when submitting t<tspan x="251.031px " y="0px ">o</tspan> X<tspan x="272.414px " y="0px ">c</tspan>ode.</text>
        </g>
        <g id="template-version" transform="matrix(1,0,0,1,3036,1933)">
            <text x="-96.57px" y="0px" style="font-family:'SFProDisplay-Regular', 'SF Pro Display';font-size:16px;">T<tspan x="-89.383px " y="0px ">e</tspan>mplat<tspan x="-43.664px " y="0px ">e</tspan> v<tspan x="-25.633px " y="0px ">.</tspan>2.0</text>
        </g>
        <g transform="matrix(1,0,0,1,3036,1951)">
            <text x="-191.594px" y="0px" style="font-family:'SFProDisplay-Regular', 'SF Pro Display';font-size:16px;">Requir<tspan x="-148.766px " y="0px ">e</tspan>s X<tspan x="-120.234px " y="0px ">c</tspan>ode 12 or gr<tspan x="-33.938px " y="0px ">e</tspan>at<tspan x="-13.125px " y="0px ">e</tspan>r</text>
        </g>
        <g transform="matrix(1,0,0,1,3036,1969)">
            <text x="-386.359px" y="0px" style="font-family:'SFProDisplay-Regular', 'SF Pro Display';font-size:16px;">Gener<tspan x="-345.461px -337.43px -332.844px " y="0px 0px 0px ">ate</tspan>d fr<tspan x="-303.109px " y="0px ">o</tspan>m camer<tspan x="-236.617px " y="0px ">a</tspan>.met<tspan x="-199.516px " y="0px ">e</tspan>ring.<tspan x="-162.914px " y="0px ">c</tspan>ent<tspan x="-133.688px -125.492px -121.344px -118.844px " y="0px 0px 0px 0px ">er.w</tspan>eight<tspan x="-73.914px " y="0px ">e</tspan>d.av<tspan x="-37.977px -29.781px -25.008px " y="0px 0px 0px ">era</tspan>ge</text>
        </g>
        <g transform="matrix(1,0,0,1,3036,1987)">
            <text x="-143.117px" y="0px" style="font-family:'SFProDisplay-Regular', 'SF Pro Display';font-size:16px;">T<tspan x="-135.695px " y="0px ">y</tspan>peset at 100 points</text>
        </g>
        <g transform="matrix(1,0,0,1,263,726)">
            <text x="0px" y="0px" style="font-family:'SFProDisplay-Regular', 'SF Pro Display';font-size:16px;">Small</text>
        </g>
        <g transform="matrix(1,0,0,1,263,1156)">
            <text x="0px" y="0px" style="font-family:'SFProDisplay-Regular', 'SF Pro Display';font-size:16px;">Medium</text>
        </g>
        <g transform="matrix(1,0,0,1,263,1586)">
            <text x="0px" y="0px" style="font-family:'SFProDisplay-Regular', 'SF Pro Display';font-size:16px;">Lar<tspan x="20.961px " y="0px ">g</tspan>e</text>
        </g>
    </g>
    <g id="Guides">
        <g id="H-reference" transform="matrix(1,0,0,1,339,696)">
            <path d="M0.977,0L3.662,0L12.988,-24.463L45.752,-24.463L55.127,0L57.764,0L30.615,-70.459L28.125,-70.459L0.977,0ZM29.346,-67.139L29.443,-67.139L44.873,-26.709L13.867,-26.709L29.346,-67.139Z" style="fill:rgb(39,170,225);fill-rule:nonzero;"/>
        </g>
        <path id="Baseline-S" d="M263,696L3036,696" style="fill:none;fill-rule:nonzero;stroke:rgb(39,170,225);stroke-width:0.5px;"/>
        <path id="Capline-S" d="M263,625.541L3036,625.541" style="fill:none;fill-rule:nonzero;stroke:rgb(39,170,225);stroke-width:0.5px;"/>
        <g id="H-reference1" serif:id="H-reference" transform="matrix(1,0,0,1,339,1126)">
            <path d="M0.977,0L3.662,0L12.988,-24.463L45.752,-24.463L55.127,0L57.764,0L30.615,-70.459L28.125,-70.459L0.977,0ZM29.346,-67.139L29.443,-67.139L44.873,-26.709L13.867,-26.709L29.346,-67.139Z" style="fill:rgb(39,170,225);fill-rule:nonzero;"/>
        </g>
        <path id="Baseline-M" d="M263,1126L3036,1126" style="fill:none;fill-rule:nonzero;stroke:rgb(39,170,225);stroke-width:0.5px;"/>
        <path id="Capline-M" d="M263,1055.54L3036,1055.54" style="fill:none;fill-rule:nonzero;stroke:rgb(39,170,225);stroke-width:0.5px;"/>
        <g id="H-reference2" serif:id="H-reference" transform="matrix(1,0,0,1,339,1556)">
            <path d="M0.977,0L3.662,0L12.988,-24.463L45.752,-24.463L55.127,0L57.764,0L30.615,-70.459L28.125,-70.459L0.977,0ZM29.346,-67.139L29.443,-67.139L44.873,-26.709L13.867,-26.709L29.346,-67.139Z" style="fill:rgb(39,170,225);fill-rule:nonzero;"/>
        </g>
        <path id="Baseline-L" d="M263,1556L3036,1556" style="fill:none;fill-rule:nonzero;stroke:rgb(39,170,225);stroke-width:0.5px;"/>
        <path id="Capline-L" d="M263,1485.54L3036,1485.54" style="fill:none;fill-rule:nonzero;stroke:rgb(39,170,225);stroke-width:0.5px;"/>
        <path id="left-margin" d="M1379.82,1030.79L1379.82,1150.12" style="fill:none;fill-rule:nonzero;stroke:rgb(0,174,239);stroke-width:0.5px;"/>
        <path id="right-margin" d="M1519.86,1030.79L1519.86,1150.12" style="fill:none;fill-rule:nonzero;stroke:rgb(0,174,239);stroke-width:0.5px;"/>
    </g>
    <g id="Symbols">
        <g id="Black-L" transform="matrix(1,0,0,1,2841.51,1556)">
            <path d="M147.461,-40.869L167.725,-40.869L167.725,-73.096C167.725,-88.281 159.082,-96.875 143.799,-96.875L97.607,-96.875L97.607,-76.66L141.064,-76.66C145.312,-76.66 147.461,-74.756 147.461,-70.215L147.461,-40.869ZM16.064,-40.869L36.328,-40.869L36.328,-70.215C36.328,-74.756 38.477,-76.66 42.676,-76.66L86.182,-76.66L86.182,-96.875L39.99,-96.875C24.756,-96.875 16.064,-88.281 16.064,-73.096L16.064,-40.869ZM39.99,26.514L86.182,26.514L86.182,6.299L42.676,6.299C38.477,6.299 36.328,4.395 36.328,-0.146L36.328,-29.492L16.064,-29.492L16.064,2.686C16.064,17.871 24.756,26.514 39.99,26.514ZM97.607,26.514L143.799,26.514C159.082,26.514 167.725,17.871 167.725,2.686L167.725,-29.492L147.461,-29.492L147.461,-0.146C147.461,4.395 145.312,6.299 141.064,6.299L97.607,6.299L97.607,26.514Z" style="fill-rule:nonzero;"/>
        </g>
        <g id="Heavy-L" transform="matrix(1,0,0,1,2545.23,1556)">
            <path d="M149.316,-40.478L166.846,-40.478L166.846,-73.242C166.846,-87.793 158.74,-95.85 144.092,-95.85L96.729,-95.85L96.729,-78.369L141.943,-78.369C146.777,-78.369 149.316,-76.074 149.316,-70.947L149.316,-40.478ZM16.064,-40.478L33.594,-40.478L33.594,-70.947C33.594,-76.074 36.084,-78.369 40.918,-78.369L86.182,-78.369L86.182,-95.85L38.818,-95.85C24.219,-95.85 16.064,-87.793 16.064,-73.242L16.064,-40.478ZM38.818,25.488L86.182,25.488L86.182,8.008L40.918,8.008C36.084,8.008 33.594,5.713 33.594,0.586L33.594,-29.883L16.064,-29.883L16.064,2.881C16.064,17.432 24.219,25.488 38.818,25.488ZM96.729,25.488L144.092,25.488C158.74,25.488 166.846,17.432 166.846,2.881L166.846,-29.883L149.316,-29.883L149.316,0.586C149.316,5.713 146.777,8.008 141.943,8.008L96.729,8.008L96.729,25.488Z" style="fill-rule:nonzero;"/>
        </g>
        <g id="Bold-L" transform="matrix(1,0,0,1,2249.01,1556)">
            <path d="M151.416,-39.99L165.869,-39.99L165.869,-73.389C165.869,-87.207 158.35,-94.727 144.385,-94.727L95.752,-94.727L95.752,-80.273L142.969,-80.273C148.389,-80.273 151.416,-77.539 151.416,-71.729L151.416,-39.99ZM16.064,-39.99L30.518,-39.99L30.518,-71.729C30.518,-77.539 33.447,-80.273 38.965,-80.273L86.182,-80.273L86.182,-94.727L37.5,-94.727C23.633,-94.727 16.064,-87.256 16.064,-73.389L16.064,-39.99ZM37.5,24.365L86.182,24.365L86.182,9.912L38.965,9.912C33.447,9.912 30.518,7.178 30.518,1.416L30.518,-30.371L16.064,-30.371L16.064,3.076C16.064,16.895 23.633,24.365 37.5,24.365ZM95.752,24.365L144.385,24.365C158.35,24.365 165.869,16.895 165.869,3.076L165.869,-30.371L151.416,-30.371L151.416,1.416C151.416,7.178 148.389,9.912 142.969,9.912L95.752,9.912L95.752,24.365Z" style="fill-rule:nonzero;"/>
        </g>
        <g id="Semibold-L" transform="matrix(1,0,0,1,1952.64,1556)">
            <path d="M152.832,-39.648L165.186,-39.648L165.186,-73.535C165.186,-86.816 158.057,-93.945 144.629,-93.945L95.068,-93.945L95.068,-81.592L143.652,-81.592C149.512,-81.592 152.832,-78.516 152.832,-72.315L152.832,-39.648ZM16.064,-39.648L28.418,-39.648L28.418,-72.315C28.418,-78.516 31.641,-81.592 37.598,-81.592L86.133,-81.592L86.133,-93.945L36.621,-93.945C23.193,-93.945 16.064,-86.865 16.064,-73.535L16.064,-39.648ZM36.621,23.584L86.133,23.584L86.133,11.279L37.598,11.279C31.641,11.279 28.418,8.203 28.418,1.953L28.418,-30.713L16.064,-30.713L16.064,3.174C16.064,16.553 23.193,23.584 36.621,23.584ZM95.068,23.584L144.629,23.584C158.057,23.584 165.186,16.504 165.186,3.174L165.186,-30.713L152.832,-30.713L152.832,1.953C152.832,8.203 149.512,11.279 143.652,11.279L95.068,11.279L95.068,23.584Z" style="fill-rule:nonzero;"/>
        </g>
        <g id="Medium-L" transform="matrix(1,0,0,1,1656.2,1556)">
            <path d="M153.906,-39.404L164.648,-39.404L164.648,-73.633C164.648,-86.523 157.861,-93.311 144.775,-93.311L94.58,-93.311L94.58,-82.617L144.141,-82.617C150.391,-82.617 153.906,-79.297 153.906,-72.705L153.906,-39.404ZM16.064,-39.404L26.807,-39.404L26.807,-72.705C26.807,-79.297 30.225,-82.617 36.572,-82.617L86.133,-82.617L86.133,-93.311L35.938,-93.311C22.9,-93.311 16.064,-86.572 16.064,-73.633L16.064,-39.404ZM35.938,22.998L86.133,22.998L86.133,12.256L36.572,12.256C30.225,12.256 26.807,8.984 26.807,2.393L26.807,-30.957L16.064,-30.957L16.064,3.271C16.064,16.26 22.9,22.998 35.938,22.998ZM94.58,22.998L144.775,22.998C157.861,22.998 164.648,16.211 164.648,3.271L164.648,-30.957L153.906,-30.957L153.906,2.393C153.906,8.984 150.391,12.256 144.141,12.256L94.58,12.256L94.58,22.998Z" style="fill-rule:nonzero;"/>
        </g>
        <g transform="matrix(0.196061,0,0,0.196061,1366.78,1461.8)">
            <g id="Regular-L">
                <g>
                    <path d="M589,219.68C589,146.452 529.548,87 456.32,87L95.36,87C67.014,87 44,110.014 44,138.36L44,382.32C44,455.548 103.452,515 176.68,515L537.64,515C565.986,515 589,491.986 589,463.64L589,219.68ZM801,479.5C801,487.987 797.629,496.126 791.627,502.127C785.626,508.129 777.487,511.5 769,511.5C768.999,511.5 768.998,511.5 768.997,511.5C762.535,511.5 756.273,509.251 751.288,505.138C732.639,489.752 684.224,449.81 651.434,422.758C630.895,405.814 619,380.579 619,353.952L619,250.048C619,223.421 630.895,198.186 651.434,181.242C684.224,154.19 732.639,114.248 751.288,98.862C756.273,94.749 762.535,92.5 768.997,92.5C768.998,92.5 768.999,92.5 769,92.5C786.673,92.5 801,106.827 801,124.5L801,479.5ZM96.637,139.637L96.637,382.32C96.637,426.497 132.503,462.363 176.68,462.363L536.363,462.363L536.363,219.68C536.363,175.503 500.497,139.637 456.32,139.637L96.637,139.637ZM748.363,169.513L684.931,221.844C676.512,228.79 671.637,239.133 671.637,250.048L671.637,353.952C671.637,364.867 676.512,375.21 684.931,382.156L748.363,434.487L748.363,169.513Z"/>
                </g>
            </g>
        </g>
        <g id="Light-L" transform="matrix(1,0,0,1,1063.56,1556)">
            <path d="M156.494,-38.477L163.086,-38.477L163.086,-73.828C163.086,-85.547 157.031,-91.699 145.117,-91.699L92.92,-91.699L92.92,-85.059L144.971,-85.059C152.295,-85.059 156.494,-81.152 156.494,-73.486L156.494,-38.477ZM16.064,-38.477L22.705,-38.477L22.705,-73.486C22.705,-81.152 26.709,-85.059 34.18,-85.059L86.231,-85.059L86.231,-91.699L34.033,-91.699C22.168,-91.699 16.064,-85.644 16.064,-73.828L16.064,-38.477ZM34.033,21.436L86.231,21.436L86.231,14.795L34.18,14.795C26.709,14.795 22.705,10.84 22.705,3.223L22.705,-31.787L16.064,-31.787L16.064,3.564C16.064,15.381 22.168,21.436 34.033,21.436ZM92.92,21.436L145.117,21.436C157.031,21.436 163.086,15.234 163.086,3.564L163.086,-31.787L156.494,-31.787L156.494,3.223C156.494,10.84 152.295,14.795 144.971,14.795L92.92,14.795L92.92,21.436Z" style="fill-rule:nonzero;"/>
        </g>
        <g id="Thin-L" transform="matrix(1,0,0,1,767.433,1556)">
            <path d="M158.008,-37.744L161.914,-37.744L161.914,-73.975C161.914,-84.717 156.201,-90.576 145.312,-90.576L91.602,-90.576L91.602,-86.67L145.166,-86.67C153.32,-86.67 158.008,-82.275 158.008,-73.779L158.008,-37.744ZM16.064,-37.744L19.971,-37.744L19.971,-73.779C19.971,-82.275 24.414,-86.67 32.813,-86.67L86.377,-86.67L86.377,-90.576L32.666,-90.576C21.777,-90.576 16.064,-84.863 16.064,-73.975L16.064,-37.744ZM32.666,20.361L86.377,20.361L86.377,16.406L32.813,16.406C24.414,16.406 19.971,12.012 19.971,3.564L19.971,-32.52L16.064,-32.52L16.064,3.76C16.064,14.648 21.777,20.361 32.666,20.361ZM91.602,20.361L145.312,20.361C156.201,20.361 161.914,14.453 161.914,3.76L161.914,-32.52L158.008,-32.52L158.008,3.564C158.008,12.012 153.32,16.406 145.166,16.406L91.602,16.406L91.602,20.361Z" style="fill-rule:nonzero;"/>
        </g>
        <g id="Ultralight-L" transform="matrix(1,0,0,1,471.015,1556)">
            <path d="M158.789,-37.353L161.328,-37.353L161.328,-74.072C161.328,-84.277 155.811,-89.99 145.41,-89.99L90.918,-89.99L90.918,-87.451L145.264,-87.451C153.857,-87.451 158.789,-82.813 158.789,-73.926L158.789,-37.353ZM16.064,-37.353L18.604,-37.353L18.604,-73.926C18.604,-82.813 23.193,-87.451 32.129,-87.451L86.475,-87.451L86.475,-89.99L31.982,-89.99C21.582,-89.99 16.064,-84.473 16.064,-74.072L16.064,-37.353ZM31.982,19.775L86.475,19.775L86.475,17.236L32.129,17.236C23.193,17.236 18.604,12.647 18.604,3.76L18.604,-32.861L16.064,-32.861L16.064,3.857C16.064,14.258 21.582,19.775 31.982,19.775ZM90.918,19.775L145.41,19.775C155.811,19.775 161.328,14.063 161.328,3.857L161.328,-32.861L158.789,-32.861L158.789,3.76C158.789,12.647 153.857,17.236 145.264,17.236L90.918,17.236L90.918,19.775Z" style="fill-rule:nonzero;"/>
        </g>
        <g id="Black-M" transform="matrix(1,0,0,1,2861.84,1126)">
            <path d="M112.402,-39.893L130.664,-39.893L130.664,-64.404C130.664,-76.66 123.389,-83.936 111.133,-83.936L76.269,-83.936L76.269,-65.674L108.203,-65.674C111.035,-65.674 112.402,-64.551 112.402,-61.475L112.402,-39.893ZM12.451,-39.893L30.762,-39.893L30.762,-61.475C30.762,-64.551 32.08,-65.674 34.912,-65.674L66.846,-65.674L66.846,-83.936L31.982,-83.936C19.727,-83.936 12.451,-76.66 12.451,-64.404L12.451,-39.893ZM31.982,13.574L66.846,13.574L66.846,-4.736L34.912,-4.736C32.08,-4.736 30.762,-5.811 30.762,-8.887L30.762,-30.518L12.451,-30.518L12.451,-5.957C12.451,6.299 19.727,13.574 31.982,13.574ZM76.269,13.574L111.133,13.574C123.389,13.574 130.664,6.299 130.664,-5.957L130.664,-30.518L112.402,-30.518L112.402,-8.887C112.402,-5.811 111.035,-4.736 108.203,-4.736L76.269,-4.736L76.269,13.574Z" style="fill-rule:nonzero;"/>
        </g>
        <g id="Heavy-M" transform="matrix(1,0,0,1,2565.5,1126)">
            <path d="M114.111,-39.551L129.932,-39.551L129.932,-64.551C129.932,-76.269 123.193,-83.057 111.426,-83.057L75.586,-83.057L75.586,-67.236L109.131,-67.236C112.451,-67.236 114.111,-65.772 114.111,-62.207L114.111,-39.551ZM12.451,-39.551L28.272,-39.551L28.272,-62.207C28.272,-65.772 29.932,-67.236 33.252,-67.236L66.846,-67.236L66.846,-83.057L31.006,-83.057C19.238,-83.057 12.451,-76.318 12.451,-64.551L12.451,-39.551ZM31.006,12.647L66.846,12.647L66.846,-3.174L33.252,-3.174C29.932,-3.174 28.272,-4.639 28.272,-8.154L28.272,-30.811L12.451,-30.811L12.451,-5.811C12.451,5.908 19.238,12.647 31.006,12.647ZM75.586,12.647L111.426,12.647C123.193,12.647 129.932,5.908 129.932,-5.811L129.932,-30.811L114.111,-30.811L114.111,-8.154C114.111,-4.639 112.451,-3.174 109.131,-3.174L75.586,-3.174L75.586,12.647Z" style="fill-rule:nonzero;"/>
        </g>
        <g id="Bold-M" transform="matrix(1,0,0,1,2269.18,1126)">
            <path d="M116.064,-39.209L129.15,-39.209L129.15,-64.697C129.15,-75.879 122.949,-82.031 111.719,-82.031L74.805,-82.031L74.805,-68.945L110.205,-68.945C114.014,-68.945 116.064,-67.139 116.064,-63.037L116.064,-39.209ZM12.451,-39.209L25.537,-39.209L25.537,-63.037C25.537,-67.139 27.539,-68.945 31.397,-68.945L66.797,-68.945L66.797,-82.031L29.883,-82.031C18.652,-82.031 12.451,-75.879 12.451,-64.697L12.451,-39.209ZM29.883,11.67L66.797,11.67L66.797,-1.416L31.397,-1.416C27.539,-1.416 25.537,-3.271 25.537,-7.324L25.537,-31.152L12.451,-31.152L12.451,-5.664C12.451,5.518 18.652,11.67 29.883,11.67ZM74.805,11.67L111.719,11.67C122.949,11.67 129.15,5.469 129.15,-5.664L129.15,-31.152L116.064,-31.152L116.064,-7.324C116.064,-3.271 114.014,-1.416 110.205,-1.416L74.805,-1.416L74.805,11.67Z" style="fill-rule:nonzero;"/>
        </g>
        <g id="Semibold-M" transform="matrix(1,0,0,1,1972.76,1126)">
            <path d="M117.383,-38.965L128.564,-38.965L128.564,-64.844C128.564,-75.586 122.803,-81.348 111.914,-81.348L74.268,-81.348L74.268,-70.166L110.889,-70.166C115.088,-70.166 117.383,-68.066 117.383,-63.623L117.383,-38.965ZM12.451,-38.965L23.633,-38.965L23.633,-63.623C23.633,-68.066 25.879,-70.166 30.127,-70.166L66.748,-70.166L66.748,-81.348L29.102,-81.348C18.262,-81.348 12.451,-75.586 12.451,-64.844L12.451,-38.965ZM29.102,10.986L66.748,10.986L66.748,-0.195L30.127,-0.195C25.879,-0.195 23.633,-2.344 23.633,-6.787L23.633,-31.445L12.451,-31.445L12.451,-5.566C12.451,5.225 18.262,10.986 29.102,10.986ZM74.268,10.986L111.914,10.986C122.803,10.986 128.564,5.176 128.564,-5.566L128.564,-31.445L117.383,-31.445L117.383,-6.787C117.383,-2.344 115.088,-0.195 110.889,-0.195L74.268,-0.195L74.268,10.986Z" style="fill-rule:nonzero;"/>
        </g>
        <g id="Medium-M" transform="matrix(1,0,0,1,1676.24,1126)">
            <path d="M118.408,-38.77L128.174,-38.77L128.174,-64.893C128.174,-75.342 122.656,-80.811 112.061,-80.811L73.877,-80.811L73.877,-71.094L111.426,-71.094C115.918,-71.094 118.408,-68.75 118.408,-64.014L118.408,-38.77ZM12.451,-38.77L22.168,-38.77L22.168,-64.014C22.168,-68.75 24.658,-71.094 29.15,-71.094L66.699,-71.094L66.699,-80.811L28.516,-80.811C17.969,-80.811 12.451,-75.391 12.451,-64.893L12.451,-38.77ZM28.516,10.449L66.699,10.449L66.699,0.732L29.15,0.732C24.658,0.732 22.168,-1.611 22.168,-6.348L22.168,-31.592L12.451,-31.592L12.451,-5.469C12.451,4.98 17.969,10.449 28.516,10.449ZM73.877,10.449L112.061,10.449C122.656,10.449 128.174,4.98 128.174,-5.469L128.174,-31.592L118.408,-31.592L118.408,-6.348C118.408,-1.611 115.918,0.732 111.426,0.732L73.877,0.732L73.877,10.449Z" style="fill-rule:nonzero;"/>
        </g>
        <g transform="matrix(0.151502,0,0,0.151502,1385.97,1045.28)">
            <g id="Regular-M">
                <g>
                    <path d="M589,219.68C589,146.452 529.548,87 456.32,87L95.36,87C67.014,87 44,110.014 44,138.36L44,382.32C44,455.548 103.452,515 176.68,515L537.64,515C565.986,515 589,491.986 589,463.64L589,219.68ZM801,479.5C801,487.987 797.629,496.126 791.627,502.127C785.626,508.129 777.487,511.5 769,511.5L768.997,511.5C762.535,511.5 756.273,509.251 751.288,505.138C732.639,489.752 684.224,449.81 651.434,422.758C630.895,405.814 619,380.579 619,353.952C619,328.923 619,275.077 619,250.048C619,223.421 630.895,198.186 651.434,181.242C684.224,154.19 732.639,114.248 751.288,98.862C756.273,94.749 762.535,92.5 768.997,92.5C768.998,92.5 768.999,92.5 769,92.5C786.673,92.5 801,106.827 801,124.5L801,479.5ZM96.804,139.804L96.804,382.32C96.804,426.404 132.596,462.196 176.68,462.196L536.196,462.196L536.196,219.68C536.196,175.596 500.404,139.804 456.32,139.804L96.804,139.804ZM748.196,169.869L685.038,221.974C676.658,228.887 671.804,239.183 671.804,250.048C671.804,275.077 671.804,328.923 671.804,353.952C671.804,364.817 676.658,375.113 685.038,382.026L748.196,434.131L748.196,169.869Z"/>
                </g>
            </g>
        </g>
        <g id="Light-M" transform="matrix(1,0,0,1,1083.5,1126)">
            <path d="M120.752,-37.988L126.807,-37.988L126.807,-65.088C126.807,-74.512 121.973,-79.394 112.402,-79.394L72.461,-79.394L72.461,-73.34L112.305,-73.34C117.676,-73.34 120.752,-70.41 120.752,-64.795L120.752,-37.988ZM12.451,-37.988L18.506,-37.988L18.506,-64.795C18.506,-70.41 21.484,-73.34 26.953,-73.34L66.797,-73.34L66.797,-79.394L26.856,-79.394C17.334,-79.394 12.451,-74.561 12.451,-65.088L12.451,-37.988ZM26.856,9.033L66.797,9.033L66.797,2.979L26.953,2.979C21.484,2.979 18.506,0.098 18.506,-5.566L18.506,-32.324L12.451,-32.324L12.451,-5.225C12.451,4.199 17.334,9.033 26.856,9.033ZM72.461,9.033L112.402,9.033C121.973,9.033 126.807,4.15 126.807,-5.225L126.807,-32.324L120.752,-32.324L120.752,-5.566C120.752,0.098 117.676,2.979 112.305,2.979L72.461,2.979L72.461,9.033Z" style="fill-rule:nonzero;"/>
        </g>
        <g id="Thin-M" transform="matrix(1,0,0,1,787.33,1126)">
            <path d="M122.119,-37.305L125.732,-37.305L125.732,-65.234C125.732,-73.731 121.24,-78.369 112.598,-78.369L71.289,-78.369L71.289,-74.756L112.451,-74.756C118.604,-74.756 122.119,-71.436 122.119,-65.039L122.119,-37.305ZM12.451,-37.305L16.064,-37.305L16.064,-65.039C16.064,-71.436 19.385,-74.756 25.732,-74.756L66.943,-74.756L66.943,-78.369L25.635,-78.369C16.992,-78.369 12.451,-73.877 12.451,-65.234L12.451,-37.305ZM25.635,8.057L66.943,8.057L66.943,4.443L25.732,4.443C19.385,4.443 16.064,1.123 16.064,-5.225L16.064,-32.959L12.451,-32.959L12.451,-5.029C12.451,3.564 16.992,8.057 25.635,8.057ZM71.289,8.057L112.598,8.057C121.24,8.057 125.732,3.467 125.732,-5.029L125.732,-32.959L122.119,-32.959L122.119,-5.225C122.119,1.123 118.604,4.443 112.451,4.443L71.289,4.443L71.289,8.057Z" style="fill-rule:nonzero;"/>
        </g>
        <g id="Ultralight-M" transform="matrix(1,0,0,1,490.888,1126)">
            <path d="M122.803,-36.963L125.195,-36.963L125.195,-65.283C125.195,-73.389 120.85,-77.832 112.695,-77.832L70.654,-77.832L70.654,-75.44L112.549,-75.44C119.043,-75.44 122.803,-71.973 122.803,-65.186L122.803,-36.963ZM12.451,-36.963L14.844,-36.963L14.844,-65.186C14.844,-71.973 18.359,-75.44 25.098,-75.44L66.992,-75.44L66.992,-77.832L25,-77.832C16.797,-77.832 12.451,-73.486 12.451,-65.283L12.451,-36.963ZM25,7.568L66.992,7.568L66.992,5.176L25.098,5.176C18.359,5.176 14.844,1.66 14.844,-5.078L14.844,-33.301L12.451,-33.301L12.451,-4.98C12.451,3.223 16.797,7.568 25,7.568ZM70.654,7.568L112.695,7.568C120.85,7.568 125.195,3.125 125.195,-4.98L125.195,-33.301L122.803,-33.301L122.803,-5.078C122.803,1.66 119.043,5.176 112.549,5.176L70.654,5.176L70.654,7.568Z" style="fill-rule:nonzero;"/>
        </g>
        <g id="Black-S" transform="matrix(1,0,0,1,2877.35,696)">
            <path d="M88.184,-38.867L102.344,-38.867L102.344,-58.106C102.344,-67.676 96.68,-73.34 87.109,-73.34L59.717,-73.34L59.717,-59.18L84.863,-59.18C87.109,-59.18 88.184,-58.301 88.184,-55.859L88.184,-38.867ZM9.766,-38.867L23.926,-38.867L23.926,-55.859C23.926,-58.301 25,-59.18 27.246,-59.18L52.393,-59.18L52.393,-73.34L25,-73.34C15.43,-73.34 9.766,-67.676 9.766,-58.106L9.766,-38.867ZM25,2.93L52.393,2.93L52.393,-11.23L27.246,-11.23C25,-11.23 23.926,-12.109 23.926,-14.551L23.926,-31.543L9.766,-31.543L9.766,-12.305C9.766,-2.734 15.43,2.93 25,2.93ZM59.717,2.93L87.109,2.93C96.68,2.93 102.344,-2.734 102.344,-12.305L102.344,-31.543L88.184,-31.543L88.184,-14.551C88.184,-12.109 87.109,-11.23 84.863,-11.23L59.717,-11.23L59.717,2.93Z" style="fill-rule:nonzero;"/>
        </g>
        <g id="Heavy-S" transform="matrix(1,0,0,1,2580.88,696)">
            <path d="M89.404,-38.672L101.855,-38.672L101.855,-58.203C101.855,-67.432 96.582,-72.754 87.305,-72.754L59.277,-72.754L59.277,-60.254L85.547,-60.254C88.086,-60.254 89.404,-59.131 89.404,-56.397L89.404,-38.672ZM9.766,-38.672L22.266,-38.672L22.266,-56.397C22.266,-59.131 23.535,-60.254 26.074,-60.254L52.344,-60.254L52.344,-72.754L24.365,-72.754C15.088,-72.754 9.766,-67.432 9.766,-58.203L9.766,-38.672ZM24.365,2.344L52.344,2.344L52.344,-10.156L26.074,-10.156C23.535,-10.156 22.266,-11.279 22.266,-14.014L22.266,-31.738L9.766,-31.738L9.766,-12.207C9.766,-2.979 15.088,2.344 24.365,2.344ZM59.277,2.344L87.305,2.344C96.582,2.344 101.855,-2.979 101.855,-12.207L101.855,-31.738L89.404,-31.738L89.404,-14.014C89.404,-11.279 88.086,-10.156 85.547,-10.156L59.277,-10.156L59.277,2.344Z" style="fill-rule:nonzero;"/>
        </g>
        <g id="Bold-S" transform="matrix(1,0,0,1,2284.41,696)">
            <path d="M90.772,-38.477L101.367,-38.477L101.367,-58.301C101.367,-67.188 96.484,-72.07 87.5,-72.07L58.838,-72.07L58.838,-61.475L86.328,-61.475C89.209,-61.475 90.772,-60.059 90.772,-56.982L90.772,-38.477ZM9.766,-38.477L20.361,-38.477L20.361,-56.982C20.361,-60.059 21.924,-61.475 24.805,-61.475L52.295,-61.475L52.295,-72.07L23.633,-72.07C14.697,-72.07 9.766,-67.188 9.766,-58.301L9.766,-38.477ZM23.633,1.66L52.295,1.66L52.295,-8.936L24.805,-8.936C21.924,-8.936 20.361,-10.352 20.361,-13.428L20.361,-31.934L9.766,-31.934L9.766,-12.109C9.766,-3.223 14.697,1.66 23.633,1.66ZM58.838,1.66L87.5,1.66C96.484,1.66 101.367,-3.223 101.367,-12.109L101.367,-31.934L90.772,-31.934L90.772,-13.428C90.772,-10.352 89.209,-8.936 86.328,-8.936L58.838,-8.936L58.838,1.66Z" style="fill-rule:nonzero;"/>
        </g>
        <g id="Semibold-S" transform="matrix(1,0,0,1,1987.9,696)">
            <path d="M91.699,-38.33L100.977,-38.33L100.977,-58.398C100.977,-67.041 96.387,-71.582 87.647,-71.582L58.496,-71.582L58.496,-62.305L86.865,-62.305C89.99,-62.305 91.699,-60.693 91.699,-57.422L91.699,-38.33ZM9.766,-38.33L19.092,-38.33L19.092,-57.422C19.092,-60.693 20.752,-62.305 23.877,-62.305L52.246,-62.305L52.246,-71.582L23.096,-71.582C14.404,-71.582 9.766,-67.041 9.766,-58.398L9.766,-38.33ZM23.096,1.172L52.246,1.172L52.246,-8.105L23.877,-8.105C20.752,-8.105 19.092,-9.717 19.092,-12.988L19.092,-32.08L9.766,-32.08L9.766,-12.012C9.766,-3.369 14.404,1.172 23.096,1.172ZM58.496,1.172L87.647,1.172C96.387,1.172 100.977,-3.369 100.977,-12.012L100.977,-32.08L91.699,-32.08L91.699,-12.988C91.699,-9.717 89.99,-8.105 86.865,-8.105L58.496,-8.105L58.496,1.172Z" style="fill-rule:nonzero;"/>
        </g>
        <g id="Medium-S" transform="matrix(1,0,0,1,1691.31,696)">
            <path d="M92.383,-38.184L100.732,-38.184L100.732,-58.447C100.732,-66.894 96.338,-71.24 87.744,-71.24L58.252,-71.24L58.252,-62.94L87.305,-62.94C90.576,-62.94 92.383,-61.182 92.383,-57.715L92.383,-38.184ZM9.766,-38.184L18.066,-38.184L18.066,-57.715C18.066,-61.182 19.922,-62.94 23.193,-62.94L52.246,-62.94L52.246,-71.24L22.705,-71.24C14.209,-71.24 9.766,-66.894 9.766,-58.447L9.766,-38.184ZM22.705,0.83L52.246,0.83L52.246,-7.471L23.193,-7.471C19.922,-7.471 18.066,-9.229 18.066,-12.695L18.066,-32.227L9.766,-32.227L9.766,-11.963C9.766,-3.516 14.209,0.83 22.705,0.83ZM58.252,0.83L87.744,0.83C96.338,0.83 100.732,-3.516 100.732,-11.963L100.732,-32.227L92.383,-32.227L92.383,-12.695C92.383,-9.229 90.576,-7.471 87.305,-7.471L58.252,-7.471L58.252,0.83Z" style="fill-rule:nonzero;"/>
        </g>
        <g transform="matrix(0.119637,0,0,0.119637,1399.29,624.905)">
            <g id="Regular-S">
                <g>
                    <path d="M589,219.68C589,146.452 529.548,87 456.32,87L95.36,87C67.014,87 44,110.014 44,138.36L44,382.32C44,455.548 103.452,515 176.68,515L537.64,515C565.986,515 589,491.986 589,463.64L589,219.68ZM801,479.5C801,487.987 797.629,496.126 791.627,502.127C785.626,508.129 777.487,511.5 769,511.5L769,511.5C762.535,511.5 756.273,509.25 751.286,505.136C732.636,489.75 684.223,449.809 651.434,422.758C630.895,405.814 619,380.579 619,353.952L619,250.048C619,223.421 630.895,198.186 651.434,181.242C684.223,154.191 732.636,114.25 751.286,98.864C756.273,94.75 762.535,92.5 769,92.5C769,92.5 769,92.5 769,92.5C786.673,92.5 801,106.827 801,124.5L801,479.5ZM96.358,139.358L96.358,382.32C96.358,426.651 132.349,462.642 176.68,462.642L536.642,462.642L536.642,219.68C536.642,175.349 500.651,139.358 456.32,139.358L96.358,139.358ZM748.642,168.922L684.754,221.629C676.271,228.628 671.358,239.05 671.358,250.048L671.358,353.952C671.358,364.95 676.271,375.372 684.754,382.371L748.642,435.078L748.642,168.922Z"/>
                </g>
            </g>
        </g>
        <g id="Light-S" transform="matrix(1,0,0,1,1098.42,696)">
            <path d="M94.238,-37.598L99.658,-37.598L99.658,-58.594C99.658,-66.211 95.752,-70.117 88.037,-70.117L57.129,-70.117L57.129,-64.697L87.94,-64.697C91.943,-64.697 94.238,-62.5 94.238,-58.301L94.238,-37.598ZM9.766,-37.598L15.185,-37.598L15.185,-58.301C15.185,-62.5 17.432,-64.697 21.484,-64.697L52.295,-64.697L52.295,-70.117L21.387,-70.117C13.672,-70.117 9.766,-66.26 9.766,-58.594L9.766,-37.598ZM21.387,-0.293L52.295,-0.293L52.295,-5.713L21.484,-5.713C17.432,-5.713 15.185,-7.861 15.185,-12.06L15.185,-32.764L9.766,-32.764L9.766,-11.768C9.766,-4.15 13.672,-0.293 21.387,-0.293ZM57.129,-0.293L88.037,-0.293C95.752,-0.293 99.658,-4.15 99.658,-11.768L99.658,-32.764L94.238,-32.764L94.238,-12.06C94.238,-7.861 91.943,-5.713 87.94,-5.713L57.129,-5.713L57.129,-0.293Z" style="fill-rule:nonzero;"/>
        </g>
        <g id="Thin-S" transform="matrix(1,0,0,1,802.174,696)">
            <path d="M95.41,-37.012L98.731,-37.012L98.731,-58.691C98.731,-65.576 95.117,-69.238 88.184,-69.238L56.103,-69.238L56.103,-65.918L88.086,-65.918C92.725,-65.918 95.41,-63.379 95.41,-58.545L95.41,-37.012ZM9.766,-37.012L13.086,-37.012L13.086,-58.545C13.086,-63.379 15.625,-65.918 20.41,-65.918L52.393,-65.918L52.393,-69.238L20.313,-69.238C13.379,-69.238 9.766,-65.625 9.766,-58.691L9.766,-37.012ZM20.313,-1.123L52.393,-1.123L52.393,-4.443L20.41,-4.443C15.625,-4.443 13.086,-6.934 13.086,-11.816L13.086,-33.35L9.766,-33.35L9.766,-11.621C9.766,-4.688 13.379,-1.123 20.313,-1.123ZM56.103,-1.123L88.184,-1.123C95.117,-1.123 98.731,-4.785 98.731,-11.621L98.731,-33.35L95.41,-33.35L95.41,-11.816C95.41,-6.934 92.725,-4.443 88.086,-4.443L56.103,-4.443L56.103,-1.123Z" style="fill-rule:nonzero;"/>
        </g>
        <g id="Ultralight-S" transform="matrix(1,0,0,1,505.707,696)">
            <path d="M96.045,-36.67L98.242,-36.67L98.242,-58.789C98.242,-65.234 94.824,-68.75 88.281,-68.75L55.566,-68.75L55.566,-66.553L88.184,-66.553C93.164,-66.553 96.045,-63.867 96.045,-58.643L96.045,-36.67ZM9.766,-36.67L11.963,-36.67L11.963,-58.643C11.963,-63.867 14.648,-66.553 19.873,-66.553L52.49,-66.553L52.49,-68.75L19.775,-68.75C13.232,-68.75 9.766,-65.283 9.766,-58.789L9.766,-36.67ZM19.775,-1.563L52.49,-1.563L52.49,-3.76L19.873,-3.76C14.648,-3.76 11.963,-6.445 11.963,-11.67L11.963,-33.643L9.766,-33.643L9.766,-11.523C9.766,-5.029 13.232,-1.563 19.775,-1.563ZM55.566,-1.563L88.281,-1.563C94.824,-1.563 98.242,-5.127 98.242,-11.523L98.242,-33.643L96.045,-33.643L96.045,-11.67C96.045,-6.445 93.164,-3.76 88.184,-3.76L55.566,-3.76L55.566,-1.563Z" style="fill-rule:nonzero;"/>
        </g>
    </g>
</svg>
